<?xml version="1.0" encoding="UTF-8"?>
<!DOCTYPE svg PUBLIC "-//W3C//DTD SVG 1.1//EN" "http://www.w3.org/Graphics/SVG/1.1/DTD/svg11.dtd">
<!-- Creator: CorelDRAW X7 -->
<svg xmlns="http://www.w3.org/2000/svg" xml:space="preserve" width="94.1916mm" height="117.475mm" version="1.1" style="shape-rendering:geometricPrecision; text-rendering:geometricPrecision; image-rendering:optimizeQuality; fill-rule:evenodd; clip-rule:evenodd"
viewBox="0 0 9419 11747"
 xmlns:xlink="http://www.w3.org/1999/xlink">
 <defs>
  <style type="text/css">
   <![CDATA[
    .fil2 {fill:white}
    .fil0 {fill:white;fill-opacity:0.200000}
    .fil1 {fill:white;fill-opacity:0.501961}
   ]]>
  </style>
 </defs>
 <g id="Layer_x0020_1">
  <metadata id="CorelCorpID_0Corel-Layer"/>
  <g id="_2215202645280">
   <path class="fil0" d="M8727 0c-74,43 -182,174 -248,240 -83,85 -169,161 -256,244l-555 549c-77,81 -335,309 -383,366l-1633 1594c-142,153 -348,324 -439,435 -34,41 -86,84 -127,123l-255 244c-43,49 -77,96 -128,124 -36,-20 -188,-182 -251,-242l-752 -736c-86,-82 -165,-157 -251,-239l-1003 -985c-87,-83 -168,-160 -256,-243l-442 -432c-23,-22 -36,-44 -59,-66 -83,-83 -166,-157 -251,-239 -86,-81 -165,-167 -251,-248 -87,-84 -169,-160 -256,-244 -71,-69 -172,-198 -252,-245 -112,111 -225,224 -338,332 -57,54 -120,108 -172,164l-169 173c195,189 391,383 589,571l290 287c51,48 98,90 148,140l811 793c27,25 42,49 69,75 49,50 96,92 147,140 391,373 787,779 1175,1149l886 863c197,189 388,390 588,570 261,-235 550,-528 804,-786l959 -933c200,-190 392,-384 591,-572l290 -286c51,-49 96,-91 147,-140l148 -151c346,-328 682,-669 1027,-998 52,-49 96,-101 148,-151 101,-95 194,-185 295,-281l294 -290c-46,-56 -106,-102 -164,-168l-515 -501z"/>
   <path class="fil1" d="M8380 3930c-67,39 -166,159 -226,220 -76,77 -155,147 -234,222l-508 502c-70,74 -305,282 -349,335l-1493 1456c-130,140 -318,297 -401,397 -31,38 -79,78 -116,113l-233 223c-39,44 -71,88 -117,113 -33,-18 -172,-166 -229,-221l-688 -672c-79,-75 -150,-144 -229,-219l-916 -900c-80,-76 -154,-146 -234,-222l-405 -395c-20,-20 -33,-40 -53,-60 -76,-76 -152,-144 -230,-218 -78,-75 -150,-153 -229,-228 -79,-76 -155,-145 -234,-222 -65,-64 -157,-181 -231,-224 -101,101 -205,205 -308,303 -52,49 -110,99 -158,150l-154 158c179,173 358,351 539,523l265 261c46,45 89,83 135,128l741 725c24,23 39,45 62,69 46,45 89,83 136,128 356,340 718,711 1073,1050l809 788c181,173 355,357 538,521 239,-215 503,-483 735,-718l876 -853c182,-173 358,-351 540,-522l265 -262c47,-45 88,-83 135,-128l134 -138c317,-300 624,-611 940,-912 47,-45 87,-93 134,-137 92,-88 178,-170 270,-257l268 -266c-41,-51 -96,-93 -149,-153l-471 -458z"/>
   <path class="fil2" d="M7757 7770c-56,32 -138,132 -188,182 -63,64 -129,122 -194,185l-422 416c-58,62 -254,235 -290,279l-1240 1209c-108,117 -264,246 -333,330 -26,32 -66,65 -96,94l-194 185c-32,37 -58,73 -97,94 -27,-15 -143,-138 -190,-183l-571 -559c-66,-62 -125,-119 -191,-182l-761 -747c-66,-63 -127,-122 -194,-185l-336 -327c-17,-17 -27,-34 -44,-51 -64,-62 -126,-119 -191,-181 -65,-62 -125,-127 -190,-189 -66,-63 -129,-120 -195,-184 -53,-53 -130,-151 -191,-186 -85,84 -171,170 -257,252 -43,40 -91,81 -131,124l-127 131c148,144 297,291 447,434l220 217c39,37 74,69 112,107l616 601c20,20 32,38 52,58 37,37 73,69 112,106 296,283 597,591 892,872l671 655c151,143 295,296 447,432 198,-178 417,-400 610,-596l728 -708c151,-144 297,-291 448,-434l220 -217c39,-38 74,-69 112,-107l112 -114c263,-249 518,-508 780,-758 39,-37 73,-77 112,-114 77,-73 147,-141 224,-213l223 -221c-35,-42 -80,-77 -124,-127l-391 -380z"/>
  </g>
 </g>
</svg>
