<?xml version="1.0" encoding="UTF-8"?>
<!DOCTYPE svg PUBLIC "-//W3C//DTD SVG 1.1//EN" "http://www.w3.org/Graphics/SVG/1.1/DTD/svg11.dtd">
<!-- Creator: CorelDRAW X7 -->
<svg xmlns="http://www.w3.org/2000/svg" xml:space="preserve" width="94.1916mm" height="94.8972mm" version="1.1" style="shape-rendering:geometricPrecision; text-rendering:geometricPrecision; image-rendering:optimizeQuality; fill-rule:evenodd; clip-rule:evenodd"
viewBox="0 0 9419 9490"
 xmlns:xlink="http://www.w3.org/1999/xlink">
 <defs>
  <style type="text/css">
   <![CDATA[
    .str0 {stroke:#FC0073;stroke-width:16.93}
    .fil0 {fill:none;fill-rule:nonzero}
   ]]>
  </style>
 </defs>
 <g id="Layer_x0020_1">
  <metadata id="CorelCorpID_0Corel-Layer"/>
  <path class="fil0 str0" d="M3770 72l88 2574c-808,-281 -1224,254 -1224,1077 0,1078 0,2156 0,3234l-2594 3 -40 -3724c-10,-984 312,-1778 850,-2364 537,-585 1285,-872 2181,-872 200,0 419,23 739,72zm1067 9407l-2570 0 5 -2521c0,-9 370,-2 370,-9 -8,-376 10,-3200 8,-3231 -39,-626 235,-1370 1204,-1072 10,3 -81,-2016 -67,-2029 462,-422 1530,-617 2041,-617 1017,0 1857,343 2554,1026 698,684 1037,1522 1037,2515 0,966 -321,1775 -1014,2477 -692,702 -1509,1079 -2458,1079 -154,0 -434,-22 -735,-53l11 -2812c210,163 415,247 625,247 266,0 468,-71 657,-267 189,-196 319,-427 319,-695 0,-271 -92,-519 -288,-707 -198,-190 -403,-290 -678,-290 -658,0 -1028,455 -1027,1367l6 5592z"/>
 </g>
</svg>
